<mxfile host="app.diagrams.net" agent="Mozilla/5.0 (Windows NT 10.0; Win64; x64) AppleWebKit/537.36 (KHTML, like Gecko) Chrome/136.0.0.0 Safari/537.36" version="27.0.5">
  <diagram name="Страница — 1" id="f4rjO96vfGerak0knMTz">
    <mxGraphModel dx="4267" dy="1697" grid="1" gridSize="10" guides="1" tooltips="1" connect="1" arrows="1" fold="1" page="1" pageScale="1" pageWidth="827" pageHeight="1169" math="0" shadow="0">
      <root>
        <mxCell id="0" />
        <mxCell id="1" parent="0" />
        <mxCell id="j8q0sxAWrBPi4WEAubVv-4" value="" style="html=1;dropTarget=0;whiteSpace=wrap;" vertex="1" parent="1">
          <mxGeometry x="-650" y="40" width="750" height="400" as="geometry" />
        </mxCell>
        <mxCell id="j8q0sxAWrBPi4WEAubVv-5" value="" style="shape=module;jettyWidth=8;jettyHeight=4;" vertex="1" parent="j8q0sxAWrBPi4WEAubVv-4">
          <mxGeometry x="1" width="20" height="20" relative="1" as="geometry">
            <mxPoint x="-27" y="7" as="offset" />
          </mxGeometry>
        </mxCell>
        <mxCell id="j8q0sxAWrBPi4WEAubVv-11" value="" style="edgeStyle=orthogonalEdgeStyle;rounded=0;orthogonalLoop=1;jettySize=auto;html=1;" edge="1" parent="1" source="j8q0sxAWrBPi4WEAubVv-6" target="j8q0sxAWrBPi4WEAubVv-7">
          <mxGeometry relative="1" as="geometry" />
        </mxCell>
        <mxCell id="j8q0sxAWrBPi4WEAubVv-6" value="" style="ellipse;" vertex="1" parent="1">
          <mxGeometry x="-720" y="130" width="30" height="30" as="geometry" />
        </mxCell>
        <mxCell id="j8q0sxAWrBPi4WEAubVv-19" value="" style="edgeStyle=orthogonalEdgeStyle;rounded=0;orthogonalLoop=1;jettySize=auto;html=1;" edge="1" parent="1" source="j8q0sxAWrBPi4WEAubVv-7" target="j8q0sxAWrBPi4WEAubVv-12">
          <mxGeometry relative="1" as="geometry" />
        </mxCell>
        <mxCell id="j8q0sxAWrBPi4WEAubVv-7" value="" style="html=1;rounded=0;" vertex="1" parent="1">
          <mxGeometry x="-660" y="130" width="30" height="30" as="geometry" />
        </mxCell>
        <mxCell id="j8q0sxAWrBPi4WEAubVv-10" value="Форма&lt;div&gt;авторизации&lt;/div&gt;" style="text;html=1;align=center;verticalAlign=middle;resizable=0;points=[];autosize=1;strokeColor=none;fillColor=none;" vertex="1" parent="1">
          <mxGeometry x="-740" y="80" width="90" height="40" as="geometry" />
        </mxCell>
        <mxCell id="j8q0sxAWrBPi4WEAubVv-12" value="«component»&lt;br&gt;&lt;b&gt;:Авторизация&lt;/b&gt;" style="html=1;dropTarget=0;whiteSpace=wrap;" vertex="1" parent="1">
          <mxGeometry x="-580" y="110" width="150" height="70" as="geometry" />
        </mxCell>
        <mxCell id="j8q0sxAWrBPi4WEAubVv-13" value="" style="shape=module;jettyWidth=8;jettyHeight=4;" vertex="1" parent="j8q0sxAWrBPi4WEAubVv-12">
          <mxGeometry x="1" width="20" height="20" relative="1" as="geometry">
            <mxPoint x="-27" y="7" as="offset" />
          </mxGeometry>
        </mxCell>
        <mxCell id="j8q0sxAWrBPi4WEAubVv-14" value="" style="rounded=0;orthogonalLoop=1;jettySize=auto;html=1;endArrow=halfCircle;endFill=0;endSize=6;strokeWidth=1;sketch=0;exitX=1;exitY=0.5;exitDx=0;exitDy=0;" edge="1" target="j8q0sxAWrBPi4WEAubVv-16" parent="1" source="j8q0sxAWrBPi4WEAubVv-12">
          <mxGeometry relative="1" as="geometry">
            <mxPoint x="-430" y="345" as="sourcePoint" />
          </mxGeometry>
        </mxCell>
        <mxCell id="j8q0sxAWrBPi4WEAubVv-15" value="" style="rounded=0;orthogonalLoop=1;jettySize=auto;html=1;endArrow=oval;endFill=0;sketch=0;sourcePerimeterSpacing=0;targetPerimeterSpacing=0;endSize=10;exitX=0;exitY=0.5;exitDx=0;exitDy=0;entryX=0.387;entryY=0.888;entryDx=0;entryDy=0;entryPerimeter=0;" edge="1" target="j8q0sxAWrBPi4WEAubVv-16" parent="1" source="j8q0sxAWrBPi4WEAubVv-17">
          <mxGeometry relative="1" as="geometry">
            <mxPoint x="-470" y="345" as="sourcePoint" />
            <mxPoint x="-359" y="90" as="targetPoint" />
          </mxGeometry>
        </mxCell>
        <mxCell id="j8q0sxAWrBPi4WEAubVv-16" value="" style="ellipse;whiteSpace=wrap;html=1;align=center;aspect=fixed;fillColor=none;strokeColor=none;resizable=0;perimeter=centerPerimeter;rotatable=0;allowArrows=0;points=[];outlineConnect=1;" vertex="1" parent="1">
          <mxGeometry x="-400" y="140" width="10" height="10" as="geometry" />
        </mxCell>
        <mxCell id="j8q0sxAWrBPi4WEAubVv-17" value="«component»&lt;br&gt;&lt;b&gt;:Пользователь&lt;/b&gt;" style="html=1;dropTarget=0;whiteSpace=wrap;" vertex="1" parent="1">
          <mxGeometry x="-340" y="110" width="150" height="70" as="geometry" />
        </mxCell>
        <mxCell id="j8q0sxAWrBPi4WEAubVv-18" value="" style="shape=module;jettyWidth=8;jettyHeight=4;" vertex="1" parent="j8q0sxAWrBPi4WEAubVv-17">
          <mxGeometry x="1" width="20" height="20" relative="1" as="geometry">
            <mxPoint x="-27" y="7" as="offset" />
          </mxGeometry>
        </mxCell>
        <mxCell id="j8q0sxAWrBPi4WEAubVv-20" value="Данные&lt;div&gt;для входа&lt;/div&gt;" style="text;html=1;align=center;verticalAlign=middle;resizable=0;points=[];autosize=1;strokeColor=none;fillColor=none;" vertex="1" parent="1">
          <mxGeometry x="-440" y="150" width="80" height="40" as="geometry" />
        </mxCell>
        <mxCell id="j8q0sxAWrBPi4WEAubVv-21" value="Данные&lt;div&gt;для входа&lt;/div&gt;" style="text;html=1;align=center;verticalAlign=middle;resizable=0;points=[];autosize=1;strokeColor=none;fillColor=none;" vertex="1" parent="1">
          <mxGeometry x="-420" y="100" width="80" height="40" as="geometry" />
        </mxCell>
        <mxCell id="j8q0sxAWrBPi4WEAubVv-56" style="edgeStyle=orthogonalEdgeStyle;rounded=0;orthogonalLoop=1;jettySize=auto;html=1;exitX=1;exitY=0.5;exitDx=0;exitDy=0;entryX=0;entryY=0.5;entryDx=0;entryDy=0;" edge="1" parent="1" source="j8q0sxAWrBPi4WEAubVv-22" target="j8q0sxAWrBPi4WEAubVv-54">
          <mxGeometry relative="1" as="geometry" />
        </mxCell>
        <mxCell id="j8q0sxAWrBPi4WEAubVv-22" value="«component»&lt;br&gt;&lt;b&gt;:Графический интерфейс для оплаты&amp;nbsp;&lt;/b&gt;" style="html=1;dropTarget=0;whiteSpace=wrap;" vertex="1" parent="1">
          <mxGeometry x="-80" y="135" width="150" height="70" as="geometry" />
        </mxCell>
        <mxCell id="j8q0sxAWrBPi4WEAubVv-23" value="" style="shape=module;jettyWidth=8;jettyHeight=4;" vertex="1" parent="j8q0sxAWrBPi4WEAubVv-22">
          <mxGeometry x="1" width="20" height="20" relative="1" as="geometry">
            <mxPoint x="-27" y="7" as="offset" />
          </mxGeometry>
        </mxCell>
        <mxCell id="j8q0sxAWrBPi4WEAubVv-24" value="" style="rounded=0;orthogonalLoop=1;jettySize=auto;html=1;endArrow=halfCircle;endFill=0;endSize=6;strokeWidth=1;sketch=0;exitX=1;exitY=0.5;exitDx=0;exitDy=0;" edge="1" parent="1" source="j8q0sxAWrBPi4WEAubVv-17">
          <mxGeometry relative="1" as="geometry">
            <mxPoint x="-290" y="365" as="sourcePoint" />
            <mxPoint x="-153" y="145" as="targetPoint" />
          </mxGeometry>
        </mxCell>
        <mxCell id="j8q0sxAWrBPi4WEAubVv-25" value="" style="rounded=0;orthogonalLoop=1;jettySize=auto;html=1;endArrow=oval;endFill=0;sketch=0;sourcePerimeterSpacing=0;targetPerimeterSpacing=0;endSize=10;exitX=0;exitY=0.5;exitDx=0;exitDy=0;" edge="1" parent="1" source="j8q0sxAWrBPi4WEAubVv-22">
          <mxGeometry relative="1" as="geometry">
            <mxPoint x="-330" y="365" as="sourcePoint" />
            <mxPoint x="-150" y="145" as="targetPoint" />
          </mxGeometry>
        </mxCell>
        <mxCell id="j8q0sxAWrBPi4WEAubVv-26" value="" style="ellipse;whiteSpace=wrap;html=1;align=center;aspect=fixed;fillColor=none;strokeColor=none;resizable=0;perimeter=centerPerimeter;rotatable=0;allowArrows=0;points=[];outlineConnect=1;" vertex="1" parent="1">
          <mxGeometry x="-315" y="360" width="10" height="10" as="geometry" />
        </mxCell>
        <mxCell id="j8q0sxAWrBPi4WEAubVv-27" value="Данные о&amp;nbsp;&lt;div&gt;платежной&lt;span style=&quot;background-color: transparent; color: light-dark(rgb(0, 0, 0), rgb(255, 255, 255));&quot;&gt;&amp;nbsp;карте&lt;/span&gt;&lt;/div&gt;" style="text;html=1;align=center;verticalAlign=middle;resizable=0;points=[];autosize=1;strokeColor=none;fillColor=none;" vertex="1" parent="1">
          <mxGeometry x="-160" y="100" width="120" height="40" as="geometry" />
        </mxCell>
        <mxCell id="j8q0sxAWrBPi4WEAubVv-29" value="&amp;lt;&amp;lt;component&amp;gt;&amp;gt;&lt;br&gt;Сайт ресторана: покупка сертификата" style="text;html=1;align=center;verticalAlign=middle;resizable=0;points=[];autosize=1;strokeColor=none;fillColor=none;" vertex="1" parent="1">
          <mxGeometry x="-420" y="50" width="240" height="40" as="geometry" />
        </mxCell>
        <mxCell id="j8q0sxAWrBPi4WEAubVv-31" value="Данные о&amp;nbsp;&lt;div&gt;платежной&lt;span style=&quot;background-color: transparent; color: light-dark(rgb(0, 0, 0), rgb(255, 255, 255));&quot;&gt;&amp;nbsp;карте&lt;/span&gt;&lt;/div&gt;" style="text;html=1;align=center;verticalAlign=middle;resizable=0;points=[];autosize=1;strokeColor=none;fillColor=none;" vertex="1" parent="1">
          <mxGeometry x="-205" y="160" width="120" height="40" as="geometry" />
        </mxCell>
        <mxCell id="j8q0sxAWrBPi4WEAubVv-32" value="«component»&lt;br&gt;&lt;b&gt;:Добавление карты&lt;/b&gt;" style="html=1;dropTarget=0;whiteSpace=wrap;" vertex="1" parent="1">
          <mxGeometry x="-80" y="280" width="150" height="70" as="geometry" />
        </mxCell>
        <mxCell id="j8q0sxAWrBPi4WEAubVv-33" value="" style="shape=module;jettyWidth=8;jettyHeight=4;" vertex="1" parent="j8q0sxAWrBPi4WEAubVv-32">
          <mxGeometry x="1" width="20" height="20" relative="1" as="geometry">
            <mxPoint x="-27" y="7" as="offset" />
          </mxGeometry>
        </mxCell>
        <mxCell id="j8q0sxAWrBPi4WEAubVv-34" value="" style="rounded=0;orthogonalLoop=1;jettySize=auto;html=1;endArrow=halfCircle;endFill=0;endSize=6;strokeWidth=1;sketch=0;exitX=0.5;exitY=0;exitDx=0;exitDy=0;" edge="1" target="j8q0sxAWrBPi4WEAubVv-36" parent="1" source="j8q0sxAWrBPi4WEAubVv-32">
          <mxGeometry relative="1" as="geometry">
            <mxPoint x="-400" y="255" as="sourcePoint" />
          </mxGeometry>
        </mxCell>
        <mxCell id="j8q0sxAWrBPi4WEAubVv-35" value="" style="rounded=0;orthogonalLoop=1;jettySize=auto;html=1;endArrow=oval;endFill=0;sketch=0;sourcePerimeterSpacing=0;targetPerimeterSpacing=0;endSize=10;exitX=0.5;exitY=1;exitDx=0;exitDy=0;" edge="1" target="j8q0sxAWrBPi4WEAubVv-36" parent="1" source="j8q0sxAWrBPi4WEAubVv-22">
          <mxGeometry relative="1" as="geometry">
            <mxPoint x="-440" y="255" as="sourcePoint" />
          </mxGeometry>
        </mxCell>
        <mxCell id="j8q0sxAWrBPi4WEAubVv-36" value="" style="ellipse;whiteSpace=wrap;html=1;align=center;aspect=fixed;fillColor=none;strokeColor=none;resizable=0;perimeter=centerPerimeter;rotatable=0;allowArrows=0;points=[];outlineConnect=1;" vertex="1" parent="1">
          <mxGeometry x="-10" y="235" width="10" height="10" as="geometry" />
        </mxCell>
        <mxCell id="j8q0sxAWrBPi4WEAubVv-37" value="Данные о&amp;nbsp;&lt;div&gt;сертификате&lt;/div&gt;" style="text;html=1;align=center;verticalAlign=middle;resizable=0;points=[];autosize=1;strokeColor=none;fillColor=none;" vertex="1" parent="1">
          <mxGeometry x="-110" y="213" width="100" height="40" as="geometry" />
        </mxCell>
        <mxCell id="j8q0sxAWrBPi4WEAubVv-38" value="Данные о&amp;nbsp;&lt;div&gt;сертификате&lt;/div&gt;" style="text;html=1;align=center;verticalAlign=middle;resizable=0;points=[];autosize=1;strokeColor=none;fillColor=none;" vertex="1" parent="1">
          <mxGeometry y="235" width="100" height="40" as="geometry" />
        </mxCell>
        <mxCell id="j8q0sxAWrBPi4WEAubVv-39" value="«component»&lt;br&gt;&lt;b&gt;:Список подарочных карт&lt;/b&gt;" style="html=1;dropTarget=0;whiteSpace=wrap;" vertex="1" parent="1">
          <mxGeometry x="-400" y="280" width="150" height="70" as="geometry" />
        </mxCell>
        <mxCell id="j8q0sxAWrBPi4WEAubVv-40" value="" style="shape=module;jettyWidth=8;jettyHeight=4;" vertex="1" parent="j8q0sxAWrBPi4WEAubVv-39">
          <mxGeometry x="1" width="20" height="20" relative="1" as="geometry">
            <mxPoint x="-27" y="7" as="offset" />
          </mxGeometry>
        </mxCell>
        <mxCell id="j8q0sxAWrBPi4WEAubVv-41" value="" style="rounded=0;orthogonalLoop=1;jettySize=auto;html=1;endArrow=halfCircle;endFill=0;endSize=6;strokeWidth=1;sketch=0;exitX=1;exitY=0.5;exitDx=0;exitDy=0;" edge="1" parent="1" source="j8q0sxAWrBPi4WEAubVv-39">
          <mxGeometry relative="1" as="geometry">
            <mxPoint x="-450" y="255" as="sourcePoint" />
            <mxPoint x="-210" y="315" as="targetPoint" />
          </mxGeometry>
        </mxCell>
        <mxCell id="j8q0sxAWrBPi4WEAubVv-42" value="" style="rounded=0;orthogonalLoop=1;jettySize=auto;html=1;endArrow=oval;endFill=0;sketch=0;sourcePerimeterSpacing=0;targetPerimeterSpacing=0;endSize=10;exitX=0;exitY=0.5;exitDx=0;exitDy=0;" edge="1" parent="1" source="j8q0sxAWrBPi4WEAubVv-32">
          <mxGeometry relative="1" as="geometry">
            <mxPoint x="-490" y="255" as="sourcePoint" />
            <mxPoint x="-210" y="315" as="targetPoint" />
          </mxGeometry>
        </mxCell>
        <mxCell id="j8q0sxAWrBPi4WEAubVv-43" value="" style="ellipse;whiteSpace=wrap;html=1;align=center;aspect=fixed;fillColor=none;strokeColor=none;resizable=0;perimeter=centerPerimeter;rotatable=0;allowArrows=0;points=[];outlineConnect=1;" vertex="1" parent="1">
          <mxGeometry x="-475" y="250" width="10" height="10" as="geometry" />
        </mxCell>
        <mxCell id="j8q0sxAWrBPi4WEAubVv-44" value="" style="shape=requiredInterface;html=1;verticalLabelPosition=bottom;sketch=0;direction=south;rotation=90;" vertex="1" parent="1">
          <mxGeometry x="140" y="165" width="20" height="10" as="geometry" />
        </mxCell>
        <mxCell id="j8q0sxAWrBPi4WEAubVv-49" style="edgeStyle=orthogonalEdgeStyle;rounded=0;orthogonalLoop=1;jettySize=auto;html=1;exitX=1;exitY=0.5;exitDx=0;exitDy=0;entryX=0;entryY=0.5;entryDx=0;entryDy=0;" edge="1" parent="1" source="j8q0sxAWrBPi4WEAubVv-47" target="j8q0sxAWrBPi4WEAubVv-48">
          <mxGeometry relative="1" as="geometry" />
        </mxCell>
        <mxCell id="j8q0sxAWrBPi4WEAubVv-47" value="" style="ellipse;" vertex="1" parent="1">
          <mxGeometry x="-720" y="300" width="30" height="30" as="geometry" />
        </mxCell>
        <mxCell id="j8q0sxAWrBPi4WEAubVv-50" style="edgeStyle=orthogonalEdgeStyle;rounded=0;orthogonalLoop=1;jettySize=auto;html=1;exitX=1;exitY=0.5;exitDx=0;exitDy=0;" edge="1" parent="1" source="j8q0sxAWrBPi4WEAubVv-48" target="j8q0sxAWrBPi4WEAubVv-39">
          <mxGeometry relative="1" as="geometry" />
        </mxCell>
        <mxCell id="j8q0sxAWrBPi4WEAubVv-48" value="" style="html=1;rounded=0;" vertex="1" parent="1">
          <mxGeometry x="-660" y="300" width="30" height="30" as="geometry" />
        </mxCell>
        <mxCell id="j8q0sxAWrBPi4WEAubVv-51" value="Список всех&amp;nbsp;&lt;div&gt;сертификатов&lt;/div&gt;" style="text;html=1;align=center;verticalAlign=middle;resizable=0;points=[];autosize=1;strokeColor=none;fillColor=none;" vertex="1" parent="1">
          <mxGeometry x="-750" y="253" width="100" height="40" as="geometry" />
        </mxCell>
        <mxCell id="j8q0sxAWrBPi4WEAubVv-53" value="Чек и&amp;nbsp;&lt;div&gt;онлайн-сертификат&lt;/div&gt;" style="text;html=1;align=center;verticalAlign=middle;resizable=0;points=[];autosize=1;strokeColor=none;fillColor=none;" vertex="1" parent="1">
          <mxGeometry x="100" y="115" width="130" height="40" as="geometry" />
        </mxCell>
        <mxCell id="j8q0sxAWrBPi4WEAubVv-54" value="" style="html=1;rounded=0;" vertex="1" parent="1">
          <mxGeometry x="85" y="155" width="30" height="30" as="geometry" />
        </mxCell>
        <mxCell id="j8q0sxAWrBPi4WEAubVv-57" style="edgeStyle=orthogonalEdgeStyle;rounded=0;orthogonalLoop=1;jettySize=auto;html=1;exitX=1;exitY=0.5;exitDx=0;exitDy=0;entryX=1;entryY=0.5;entryDx=0;entryDy=0;entryPerimeter=0;" edge="1" parent="1" source="j8q0sxAWrBPi4WEAubVv-54" target="j8q0sxAWrBPi4WEAubVv-44">
          <mxGeometry relative="1" as="geometry" />
        </mxCell>
        <mxCell id="j8q0sxAWrBPi4WEAubVv-62" value="" style="rounded=0;orthogonalLoop=1;jettySize=auto;html=1;endArrow=halfCircle;endFill=0;endSize=6;strokeWidth=1;sketch=0;exitX=0.5;exitY=1;exitDx=0;exitDy=0;" edge="1" target="j8q0sxAWrBPi4WEAubVv-64" parent="1" source="j8q0sxAWrBPi4WEAubVv-17">
          <mxGeometry relative="1" as="geometry">
            <mxPoint x="-340" y="225" as="sourcePoint" />
          </mxGeometry>
        </mxCell>
        <mxCell id="j8q0sxAWrBPi4WEAubVv-63" value="" style="rounded=0;orthogonalLoop=1;jettySize=auto;html=1;endArrow=oval;endFill=0;sketch=0;sourcePerimeterSpacing=0;targetPerimeterSpacing=0;endSize=10;exitX=0.5;exitY=0;exitDx=0;exitDy=0;" edge="1" target="j8q0sxAWrBPi4WEAubVv-64" parent="1" source="j8q0sxAWrBPi4WEAubVv-39">
          <mxGeometry relative="1" as="geometry">
            <mxPoint x="-380" y="225" as="sourcePoint" />
          </mxGeometry>
        </mxCell>
        <mxCell id="j8q0sxAWrBPi4WEAubVv-64" value="" style="ellipse;whiteSpace=wrap;html=1;align=center;aspect=fixed;fillColor=none;strokeColor=none;resizable=0;perimeter=centerPerimeter;rotatable=0;allowArrows=0;points=[];outlineConnect=1;" vertex="1" parent="1">
          <mxGeometry x="-305" y="225" width="10" height="10" as="geometry" />
        </mxCell>
        <mxCell id="j8q0sxAWrBPi4WEAubVv-65" value="&lt;span style=&quot;text-wrap-mode: wrap;&quot;&gt;Обновленный список&amp;nbsp;&lt;/span&gt;&lt;div style=&quot;text-wrap-mode: wrap;&quot;&gt;сертификатов&lt;/div&gt;" style="text;html=1;align=center;verticalAlign=middle;resizable=0;points=[];autosize=1;strokeColor=none;fillColor=none;" vertex="1" parent="1">
          <mxGeometry x="-305" y="205" width="150" height="40" as="geometry" />
        </mxCell>
        <mxCell id="j8q0sxAWrBPi4WEAubVv-66" value="&lt;span style=&quot;text-wrap-mode: wrap;&quot;&gt;Обновленный список&amp;nbsp;&lt;/span&gt;&lt;div style=&quot;text-wrap-mode: wrap;&quot;&gt;сертификатов&lt;/div&gt;" style="text;html=1;align=center;verticalAlign=middle;resizable=0;points=[];autosize=1;strokeColor=none;fillColor=none;" vertex="1" parent="1">
          <mxGeometry x="-445" y="220" width="150" height="40" as="geometry" />
        </mxCell>
      </root>
    </mxGraphModel>
  </diagram>
</mxfile>
